<?xml version="1.0" encoding="utf-8"?>
<!-- Generator: Adobe Illustrator 25.2.3, SVG Export Plug-In . SVG Version: 6.00 Build 0)  -->
<svg version="1.1" id="Layer_1" xmlns="http://www.w3.org/2000/svg" xmlns:xlink="http://www.w3.org/1999/xlink" x="0px" y="0px"
	 viewBox="0 0 379.4 67.7" style="enable-background:new 0 0 379.4 67.7;" xml:space="preserve">
<style type="text/css">
	.st0{fill:#129DFF;}
	.st1{fill:#0A6BCC;}
	.st2{fill:#FFFFFF;}
</style>
<path class="st0" d="M107.4,34.3c0,9.4-6.9,16.6-15.4,16.6c-4.6,0-7.9-1.7-10.2-4.6V50h-8.1V5.9h8.1v16.3c2.3-2.9,5.6-4.6,10.2-4.6
	C100.5,17.6,107.4,24.9,107.4,34.3z M99.3,34.3c0-5.3-3.7-8.9-8.8-8.9c-5,0-8.7,3.6-8.7,8.9s3.7,8.9,8.7,8.9
	C95.6,43.2,99.3,39.6,99.3,34.3z M111,4h8.1v46H111C111,50,111,4,111,4z M153.4,18.5V50h-8.1v-3.5c-1.9,2.8-5.2,4.4-9.4,4.4
	c-6.7,0-11.9-4.7-11.9-13.1V18.5h8.1v18.3c0,4.3,2.6,6.5,6.2,6.5c4,0,6.9-2.3,6.9-7.8v-17C145.2,18.5,153.4,18.5,153.4,18.5z
	 M174.4,43.5c3.2,0,5.7-1.3,7.1-3.2l6.6,3.8c-3,4.3-7.7,6.7-13.7,6.7c-10.6,0-17.3-7.3-17.3-16.6s6.7-16.6,16.6-16.6
	c9.3,0,16,7.4,16,16.6c0,1.2-0.1,2.3-0.3,3.3h-23.8C166.7,41.8,170.2,43.5,174.4,43.5z M181.5,31.3c-1-4.5-4.4-6.4-7.8-6.4
	c-4.4,0-7.3,2.3-8.3,6.4H181.5z M0.1,18.2v15.2l28.4,16.4V34.6L0.1,18.2z M0,36.9v14.3l28.4,16.5V53.3L0,36.9z"/>
<path class="st1" d="M29.8,0l12.3,7.1l-27.5,16L1.9,15.8L29.8,0z M31.3,32.7l0.2,16.8l12.4-7.1V26.1l-14.2-8.3l-12.1,7L31.3,32.7z"
	/>
<path class="st2" d="M239.9,30.6V50h-8.1V31.2c0-3.7-1.9-6-5.3-6c-3.6,0-5.9,2.4-5.9,7.1V50h-8.1V31.2c0-3.7-1.9-6-5.3-6
	c-3.5,0-5.9,2.4-5.9,7.1V50h-8.1V18.5h8.1v3.3c1.8-2.6,4.7-4.2,8.8-4.2c3.9,0,6.8,1.6,8.6,4.5c2-2.8,5.1-4.5,9.4-4.5
	C235.2,17.6,239.9,22.7,239.9,30.6z M276.8,18.5V50h-8.1v-3.7c-2.3,2.8-5.7,4.6-10.3,4.6c-8.4,0-15.3-7.3-15.3-16.6
	s6.9-16.6,15.3-16.6c4.6,0,8,1.8,10.3,4.6v-3.7L276.8,18.5L276.8,18.5z M268.7,34.3c0-5.3-3.7-8.9-8.8-8.9c-5,0-8.7,3.6-8.7,8.9
	s3.7,8.9,8.7,8.9C265,43.2,268.7,39.6,268.7,34.3z M293,26.3v13.1c0,3.4,2.5,3.5,7.1,3.2V50c-11.4,1.3-15.3-2.1-15.3-10.6V26.3h-5.5
	v-7.8h5.5v-6.4l8.1-2.5v8.8h7.1v7.8h-7V26.3z M321.9,17.9V27c-4.2-0.5-9.6,1.4-9.6,8v15.1h-8.1V18.5h8.1v5.4
	C314,19.6,317.9,17.9,321.9,17.9z M323.5,9.7c0-2.7,2.3-5,5-5c2.8,0,5,2.3,5,5s-2.3,5-5,5C325.8,14.7,323.5,12.5,323.5,9.7z
	 M324.5,18.5h8.1V50h-8.1V18.5z M357.6,50l-6.8-9.6l-6.9,9.6h-9.4L346,33.9l-11-15.4h9.4l6.4,8.9l6.4-8.9h9.3l-11,15.4L367,50H357.6
	z M46.9,58.5l12.4-7.1l0.1-34.2L45.2,9l-12.4,7.1L47,24.3L46.9,58.5z M43.9,60.2V46l-12.4,7.1v14.2L43.9,60.2z M367.9,9.6
	c0.3-0.7,0.7-1.3,1.3-1.9s1.2-0.9,1.9-1.2c0.7-0.3,1.5-0.5,2.3-0.5s1.6,0.2,2.3,0.5c0.7,0.3,1.3,0.7,1.9,1.2c0.5,0.5,1,1.2,1.3,1.9
	s0.5,1.5,0.5,2.3c0,0.9-0.2,1.6-0.5,2.4c-0.3,0.7-0.7,1.4-1.3,1.9c-0.5,0.5-1.2,0.9-1.9,1.2c-0.7,0.3-1.5,0.4-2.3,0.4
	s-1.6-0.1-2.3-0.4c-0.7-0.3-1.3-0.7-1.9-1.2c-0.5-0.5-1-1.2-1.3-1.9c-0.3-0.7-0.5-1.5-0.5-2.4C367.5,11.1,367.6,10.3,367.9,9.6z
	 M368.9,13.9c0.2,0.6,0.6,1.2,1,1.6c0.4,0.5,1,0.8,1.5,1.1c0.6,0.3,1.2,0.4,1.9,0.4c0.7,0,1.3-0.1,1.9-0.4s1.1-0.6,1.5-1.1
	s0.8-1,1-1.6s0.4-1.3,0.4-2s-0.1-1.4-0.4-2c-0.2-0.6-0.6-1.1-1-1.6c-0.4-0.4-0.9-0.8-1.5-1.1s-1.2-0.4-1.9-0.4
	c-0.7,0-1.3,0.1-1.9,0.4c-0.6,0.3-1.1,0.6-1.5,1.1c-0.4,0.4-0.8,1-1,1.6s-0.4,1.3-0.4,2C368.5,12.6,368.7,13.3,368.9,13.9z
	 M373.8,8.5c0.8,0,1.4,0.2,1.8,0.5c0.4,0.3,0.6,0.8,0.6,1.5c0,0.6-0.2,1.1-0.5,1.4s-0.8,0.5-1.3,0.5l2,3.1h-1.2l-1.9-3h-1.1v3h-1.1
	V8.6h2.7V8.5z M373.3,11.5c0.2,0,0.5,0,0.7,0s0.4-0.1,0.6-0.1c0.2-0.1,0.3-0.2,0.4-0.3s0.1-0.4,0.1-0.6s0-0.4-0.1-0.6
	c-0.1-0.1-0.2-0.2-0.3-0.3c-0.1-0.1-0.3-0.1-0.5-0.2c-0.2,0-0.4,0-0.5,0h-1.4v2.2h1V11.5z"/>
</svg>
