<svg width="18" height="18" viewBox="0 0 18 18" fill="none" xmlns="http://www.w3.org/2000/svg">
<path d="M16.5 0H1.375C1.01033 0 0.660591 0.144866 0.402728 0.402728C0.144866 0.660591 0 1.01033 0 1.375V16.5C0 16.8647 0.144866 17.2144 0.402728 17.4723C0.660591 17.7301 1.01033 17.875 1.375 17.875H16.5C16.8647 17.875 17.2144 17.7301 17.4723 17.4723C17.7301 17.2144 17.875 16.8647 17.875 16.5V1.375C17.875 1.01033 17.7301 0.660591 17.4723 0.402728C17.2144 0.144866 16.8647 0 16.5 0ZM6.1875 13.0625C6.1875 13.2448 6.11507 13.4197 5.98614 13.5486C5.8572 13.6776 5.68234 13.75 5.5 13.75C5.31766 13.75 5.1428 13.6776 5.01386 13.5486C4.88493 13.4197 4.8125 13.2448 4.8125 13.0625V7.5625C4.8125 7.38016 4.88493 7.2053 5.01386 7.07636C5.1428 6.94743 5.31766 6.875 5.5 6.875C5.68234 6.875 5.8572 6.94743 5.98614 7.07636C6.11507 7.2053 6.1875 7.38016 6.1875 7.5625V13.0625ZM5.5 6.1875C5.29604 6.1875 5.09666 6.12702 4.92707 6.0137C4.75748 5.90039 4.6253 5.73933 4.54725 5.55089C4.4692 5.36246 4.44877 5.15511 4.48856 4.95506C4.52836 4.75502 4.62657 4.57127 4.7708 4.42705C4.91502 4.28282 5.09877 4.18461 5.29881 4.14481C5.49886 4.10502 5.70621 4.12545 5.89464 4.2035C6.08308 4.28155 6.24414 4.41373 6.35745 4.58332C6.47077 4.75291 6.53125 4.95229 6.53125 5.15625C6.53125 5.42975 6.4226 5.69206 6.2292 5.88545C6.03581 6.07885 5.7735 6.1875 5.5 6.1875ZM13.75 13.0625C13.75 13.2448 13.6776 13.4197 13.5486 13.5486C13.4197 13.6776 13.2448 13.75 13.0625 13.75C12.8802 13.75 12.7053 13.6776 12.5764 13.5486C12.4474 13.4197 12.375 13.2448 12.375 13.0625V9.96875C12.375 9.51291 12.1939 9.07574 11.8716 8.75341C11.5493 8.43108 11.1121 8.25 10.6562 8.25C10.2004 8.25 9.76324 8.43108 9.44091 8.75341C9.11858 9.07574 8.9375 9.51291 8.9375 9.96875V13.0625C8.9375 13.2448 8.86507 13.4197 8.73614 13.5486C8.6072 13.6776 8.43234 13.75 8.25 13.75C8.06766 13.75 7.8928 13.6776 7.76386 13.5486C7.63493 13.4197 7.5625 13.2448 7.5625 13.0625V7.5625C7.56335 7.3941 7.62598 7.23187 7.73851 7.10659C7.85104 6.9813 8.00564 6.90167 8.17298 6.88281C8.34032 6.86395 8.50876 6.90716 8.64636 7.00425C8.78396 7.10133 8.88113 7.24555 8.91945 7.40953C9.38454 7.09403 9.92677 6.91118 10.4879 6.8806C11.0491 6.85003 11.608 6.97289 12.1046 7.23599C12.6012 7.49909 13.0168 7.8925 13.3067 8.37396C13.5965 8.85542 13.7498 9.40675 13.75 9.96875V13.0625Z" fill="#4A4A4A"/>
</svg>
